<svg width="165" height="191" viewBox="0 0 165 191" fill="none" xmlns="http://www.w3.org/2000/svg">
<path id="Ellipse 4" d="M69.5 0C85.2946 1.88348e-07 100.843 3.91746 114.751 11.4015C128.66 18.8856 140.496 29.7026 149.198 42.8837C157.9 56.0648 163.197 71.1985 164.615 86.9293C166.032 102.66 163.526 118.497 157.32 133.021C151.115 147.546 141.404 160.304 129.057 170.154C116.71 180.004 102.112 186.638 86.5722 189.462C71.0321 192.285 55.0342 191.21 40.0115 186.333C24.9887 181.456 11.4102 172.929 0.491869 161.516L6.7026 155.575C16.6382 165.961 28.9948 173.72 42.6655 178.158C56.3362 182.596 70.8942 183.575 85.0357 181.005C99.1773 178.436 112.461 172.399 123.696 163.435C134.932 154.472 143.769 142.862 149.416 129.644C155.064 116.427 157.344 102.016 156.054 87.7007C154.764 73.3856 149.944 59.614 142.025 47.6191C134.106 35.6243 123.336 25.7809 110.679 18.9704C98.0217 12.1599 83.8731 8.595 69.5 8.595V0Z" fill="black"/>
</svg>
